Coordinates
version=1
nRows=14
nColumns=40
inDegrees=yes

Units are S.I. units (second, meters, Newtons, ...)
If the header above contains a line with 'inDegrees', this indicates whether rotational values are in degrees (yes) or radians (no).

endheader
time	pelvis_tilt	pelvis_list	pelvis_rotation	pelvis_tx	pelvis_ty	pelvis_tz	hip_flexion_r	hip_adduction_r	hip_rotation_r	knee_angle_r	knee_angle_r_beta	ankle_angle_r	subtalar_angle_r	mtp_angle_r	hip_flexion_l	hip_adduction_l	hip_rotation_l	knee_angle_l	knee_angle_l_beta	ankle_angle_l	subtalar_angle_l	mtp_angle_l	lumbar_extension	lumbar_bending	lumbar_rotation	arm_flex_r	arm_add_r	arm_rot_r	elbow_flex_r	pro_sup_r	wrist_flex_r	wrist_dev_r	arm_flex_l	arm_add_l	arm_rot_l	elbow_flex_l	pro_sup_l	wrist_flex_l	wrist_dev_l
      0.72400000	     13.94381711	     -3.00799394	      0.32047754	      0.98286115	      0.92464560	     -0.32614801	    -29.74245060	      3.33709800	     -1.72110281	     26.49192290	      0.46237128	     -9.98478756	      0.00000000	      0.00000000	     20.89987318	     -2.81067361	      3.80920699	     26.16323210	      0.45663454	    -17.03436376	      0.00000000	      0.00000000	    -29.34946740	      1.47336435	      4.70609046	     11.64087162	    -18.31868044	     18.87350369	     50.24216501	     76.07507438	      0.00000000	      0.00000000	      0.25702401	    -20.35587277	     17.40716326	     40.98229946	     80.08504360	      0.00000000	      0.00000000
      0.72800000	     13.98631514	     -2.80671993	      0.52337196	      0.98983972	      0.92466572	     -0.32703021	    -29.73910612	      3.13063569	     -1.87962686	     27.07572902	      0.47256062	    -11.39711996	      0.00000000	      0.00000000	     20.98552775	     -2.45230444	      4.02864407	     27.18939973	      0.47454455	    -16.96795599	      0.00000000	      0.00000000	    -29.27400298	      1.33926108	      4.41840240	     11.38479405	    -18.09974603	     18.58870120	     49.86533929	     76.07133173	      0.00000000	      0.00000000	      0.20978162	    -20.31483960	     17.38088918	     40.70181579	     80.12416853	      0.00000000	      0.00000000
      0.73200000	     14.03845545	     -2.60697225	      0.56368808	      0.99658337	      0.92489468	     -0.32768049	    -29.72754469	      2.94013867	     -1.47950462	     27.67377544	      0.48299850	    -12.32088658	      0.00000000	      0.00000000	     20.86879629	     -2.10102267	      4.40661918	     27.85665991	      0.48619043	    -17.11131716	      0.00000000	      0.00000000	    -29.26842434	      1.14258689	      4.22405144	     11.16483848	    -17.94945049	     18.43016750	     49.64576133	     76.06612287	      0.00000000	      0.00000000	      0.14220768	    -20.32188873	     17.38403865	     40.54943326	     80.14127273	      0.00000000	      0.00000000
      0.73600000	     14.12645722	     -2.39092976	      0.73278882	      1.00383552	      0.92520982	     -0.32845754	    -29.73279760	      2.67083793	     -1.84671347	     28.19621285	      0.49211675	    -14.21735094	      0.00000000	      0.00000000	     20.78484720	     -1.77173223	      4.48119711	     28.70884497	      0.50106387	    -16.95263844	      0.00000000	      0.00000000	    -29.22418146	      0.98081986	      3.99641443	     10.83162351	    -17.72268545	     18.07301361	     49.24529616	     76.11127630	      0.00000000	      0.00000000	      0.08215846	    -20.27358320	     17.32067784	     40.32750208	     80.19581782	      0.00000000	      0.00000000
      0.74000000	     14.22396651	     -2.18631093	      0.89150766	      1.01089843	      0.92560895	     -0.32931417	    -29.72742999	      2.44997804	     -1.98754051	     28.75822462	      0.50192571	    -15.78166106	      0.00000000	      0.00000000	     20.58665622	     -1.41843082	      4.73962601	     29.30828894	      0.51152614	    -16.97830695	      0.00000000	      0.00000000	    -29.21137369	      0.83181918	      3.74755118	     10.56301002	    -17.52956115	     17.82595732	     48.87524343	     76.15262777	      0.00000000	      0.00000000	      0.02936132	    -20.22031970	     17.27965574	     40.10354266	     80.23912486	      0.00000000	      0.00000000
      0.74400000	     14.33735642	     -1.97557499	      0.98703242	      1.01771189	      0.92610343	     -0.32978198	    -29.71475093	      2.27572200	     -1.72790991	     29.40198469	      0.51316144	    -17.02272822	      0.00000000	      0.00000000	     20.34666091	     -1.09304112	      5.04716937	     29.84450399	      0.52088486	    -17.03291579	      0.00000000	      0.00000000	    -29.26035966	      0.62108128	      3.50982380	     10.33798947	    -17.30309854	     17.65128693	     48.58237038	     76.15787989	      0.00000000	      0.00000000	     -0.02561402	    -20.26610877	     17.27742393	     39.96049903	     80.25202958	      0.00000000	      0.00000000
      0.74800000	     14.43171649	     -1.70253048	      1.21795690	      1.02534638	      0.92656320	     -0.33053746	    -29.71460734	      1.95569084	     -2.38145016	     29.86682037	      0.52127435	    -19.41666089	      0.00000000	      0.00000000	     20.06979139	     -0.68572457	      5.17673475	     30.42216079	      0.53096687	    -16.68630368	      0.00000000	      0.00000000	    -29.16248467	      0.41744874	      3.18335046	      9.95098954	    -17.03595257	     17.35364949	     48.12074147	     76.17749322	      0.00000000	      0.00000000	     -0.17888227	    -20.33057676	     17.35381243	     39.87236465	     80.32186642	      0.00000000	      0.00000000
      0.75200000	     14.61004163	     -1.50322876	      1.33427178	      1.03230336	      0.92723074	     -0.33109568	    -29.71601692	      1.74567421	     -2.48471870	     30.48660945	      0.53209171	    -21.16071069	      0.00000000	      0.00000000	     19.71212128	     -0.36241503	      5.39855307	     30.96667238	      0.54047039	    -16.46272595	      0.00000000	      0.00000000	    -29.26593561	      0.24678238	      2.97363657	      9.71341366	    -16.84833814	     17.12710387	     47.78080123	     76.16447452	      0.00000000	      0.00000000	     -0.23758144	    -20.36849598	     17.31801352	     39.81962687	     80.34937924	      0.00000000	      0.00000000
      0.75600000	     14.74290131	     -1.26209024	      1.50627433	      1.03973930	      0.92782921	     -0.33156855	    -29.69991381	      1.45086665	     -2.98482511	     31.01280444	      0.54127555	    -23.40083044	      0.00000000	      0.00000000	     19.35882096	     -0.01493706	      5.51938445	     31.51207902	      0.54998953	    -15.99434346	      0.00000000	      0.00000000	    -29.21658879	      0.04137831	      2.68218582	      9.38547858	    -16.59067880	     16.88832398	     47.39706969	     76.10905910	      0.00000000	      0.00000000	     -0.36977291	    -20.46405521	     17.37280118	     39.73421231	     80.37643581	      0.00000000	      0.00000000
      0.76000000	     14.89693593	     -1.00906127	      1.70241098	      1.04690127	      0.92853628	     -0.33225905	    -29.68713304	      1.23903628	     -3.12974713	     31.57669030	      0.55111721	    -25.24431216	      0.00000000	      0.00000000	     18.95165454	      0.39935786	      5.78553854	     31.99913188	      0.55849021	    -15.56938848	      0.00000000	      0.00000000	    -29.27268784	     -0.14425151	      2.34167258	      9.08337633	    -16.37899103	     16.67802924	     47.12230095	     76.04713492	      0.00000000	      0.00000000	     -0.49792498	    -20.54011983	     17.38148412	     39.73435288	     80.37827797	      0.00000000	      0.00000000
      0.76400000	     15.12609394	     -0.82721116	      1.80452990	      1.05388091	      0.92941622	     -0.33265276	    -29.67255959	      0.99845461	     -3.34430800	     32.22124288	      0.56236678	    -27.01550341	      0.00000000	      0.00000000	     18.39981400	      0.68927774	      5.94349690	     32.35835520	      0.56475984	    -15.21744086	      0.00000000	      0.00000000	    -29.39810282	     -0.31713838	      2.13759795	      8.79830087	    -16.20591849	     16.72218811	     46.66616664	     76.17299794	      0.00000000	      0.00000000	     -0.53921903	    -20.61090652	     17.45399648	     39.68082499	     80.39049250	      0.00000000	      0.00000000
      0.76800000	     15.29840326	     -0.58041291	      1.98250131	      1.06099155	      0.93010209	     -0.33319126	    -29.65557238	      0.78038067	     -3.51225902	     32.81196550	      0.57267683	    -28.53306387	      0.00000000	      0.00000000	     17.93084006	      1.07057776	      6.12977979	     32.77448869	      0.57202274	    -14.77500325	      0.00000000	      0.00000000	    -29.41429653	     -0.50430732	      1.82265093	      8.55462650	    -16.01494255	     16.69656603	     46.25180504	     76.24601569	      0.00000000	      0.00000000	     -0.63491120	    -20.72821440	     17.58726767	     39.67380103	     80.37257487	      0.00000000	      0.00000000
      0.77200000	     15.52568015	     -0.45292760	      2.10566444	      1.06782486	      0.93094995	     -0.33359274	    -29.63053727	      0.66681795	     -3.53255867	     33.47972121	      0.58433137	    -29.70850945	      0.00000000	      0.00000000	     17.39478429	      1.29315270	      6.27100348	     33.14023911	      0.57840629	    -14.43964362	      0.00000000	      0.00000000	    -29.54904070	     -0.59887768	      1.62537183	      8.32430064	    -15.84092581	     16.59138094	     45.88378130	     76.25168218	      0.00000000	      0.00000000	     -0.68120779	    -20.83916355	     17.66913270	     39.73755890	     80.37641571	      0.00000000	      0.00000000
      0.77600000	     15.75193426	     -0.25789853	      2.26306546	      1.07461365	      0.93186075	     -0.33396006	    -29.60672343	      0.56616718	     -3.40494554	     34.12139979	      0.59553077	    -30.95454849	      0.00000000	      0.00000000	     16.82554864	      1.58628818	      6.41453588	     33.46172713	      0.58401731	    -13.96549637	      0.00000000	      0.00000000	    -29.72257255	     -0.75275494	      1.33932937	      8.11361283	    -15.63116969	     16.48741949	     45.55262845	     76.24044444	      0.00000000	      0.00000000	     -0.73771409	    -20.97633614	     17.68986282	     39.82879701	     80.35390972	      0.00000000	      0.00000000
